HIERARCHY
ROOT HipCenter
{
    OFFSET 0.0 0.0 -0.0
    CHANNELS 6 Xposition Yposition Zposition Zrotation Xrotation Yrotation
    JOINT Spine
    {
        OFFSET 0.0 0.12093976885080338 0.0
        CHANNELS 3 Zrotation Xrotation Yrotation
        JOINT ShoulderCenter
        {
            OFFSET 0.0 0.33487603068351746 0.0
            CHANNELS 3 Zrotation Xrotation Yrotation
            JOINT LeftShoulder
            {
                OFFSET 0.1902620792388916 0.0 0.0
                CHANNELS 3 Zrotation Xrotation Yrotation
                JOINT LeftElbow
                {
                    OFFSET 0.29751893877983093 0.0 0.0
                    CHANNELS 3 Zrotation Xrotation Yrotation
                    JOINT LeftWrist
                    {
                        OFFSET 0.2960919141769409 0.0 0.0
                        CHANNELS 3 Zrotation Xrotation Yrotation
                        JOINT LeftHand
                        {
                            OFFSET 0.04403641074895859 0.0 0.0
                            CHANNELS 3 Zrotation Xrotation Yrotation
                            End Site
                            {
                                OFFSET 0.017614565789699554 0.0 0.0
                            }
                        }
                    }
                }
            }
            JOINT RightShoulder
            {
                OFFSET -0.1902620792388916 0.0 0.0
                CHANNELS 3 Zrotation Xrotation Yrotation
                JOINT RightElbow
                {
                    OFFSET -0.29751893877983093 0.0 0.0
                    CHANNELS 3 Zrotation Xrotation Yrotation
                    JOINT RightWrist
                    {
                        OFFSET -0.2960919141769409 0.0 0.0
                        CHANNELS 3 Zrotation Xrotation Yrotation
                        JOINT RightHand
                        {
                            OFFSET -0.04403641074895859 0.0 0.0
                            CHANNELS 3 Zrotation Xrotation Yrotation
                            End Site
                            {
                                OFFSET -0.017614565789699554 0.0 0.0
                            }
                        }
                    }
                }
            }
            End Site
            {
                OFFSET 0.0 0.1339503973722458 0.0
            }
        }
    }
    JOINT LeftHip
    {
        OFFSET 0.13975480198860168 0.0 0.0
        CHANNELS 3 Zrotation Xrotation Yrotation
        JOINT LeftKnee
        {
            OFFSET 0.0 -0.40647709369659424 0.0
            CHANNELS 3 Zrotation Xrotation Yrotation
            JOINT LeftAnkle
            {
                OFFSET 0.0 -0.44773364067077637 0.0
                CHANNELS 3 Zrotation Xrotation Yrotation
                JOINT LeftFoot
                {
                    OFFSET 0.0 -0.10067339241504669 0.0
                    CHANNELS 3 Zrotation Xrotation Yrotation
                    End Site
                    {
                        OFFSET 0.0 0.0 0.040269359946250916
                    }
                }
            }
        }
    }
    JOINT RightHip
    {
        OFFSET -0.13975480198860168 0.0 0.0
        CHANNELS 3 Zrotation Xrotation Yrotation
        JOINT RightKnee
        {
            OFFSET 0.0 -0.40647709369659424 0.0
            CHANNELS 3 Zrotation Xrotation Yrotation
            JOINT RightAnkle
            {
                OFFSET 0.0 -0.44773364067077637 0.0
                CHANNELS 3 Zrotation Xrotation Yrotation
                JOINT RightFoot
                {
                    OFFSET 0.0 -0.10067339241504669 0.0
                    CHANNELS 3 Zrotation Xrotation Yrotation
                    End Site
                    {
                        OFFSET 0.0 0.0 0.040269359946250916
                    }
                }
            }
        }
    }
}
MOTION
Frames: 4
Frame Time: 0.03333333333333333
0.6190000176429749 -0.859000027179718 0.3529999852180481 -158.19853272750606 84.91344381657862 -22.984961736433576 -6.519772778589021 11.44159827489029 1.1346810269371648 1.6958242987277638e-07 1.4798197369293294e-06 6.345336999398212 131.86197192452008 14.790750318560713 -100.76949164607274 2.171590636007065e-06 6.529426683676653e-07 92.5279002592693 -4.354767948580121e-06 -16.755472640534492 60.01589221234323 -6.3611093629270335e-15 -7.951386703658796e-16 6.3611093629270335e-15 -116.06629296084203 18.79885975061583 106.4827791065453 -2.1891865087142456e-06 -2.7620005746077353e-06 -100.75588234136849 179.9999972976881 -67.1533454045419 123.03420908291763 0.0 0.0 -6.3611093629270335e-15 108.90691753479929 -36.225842642681684 -147.06301049401404 36.958218080568415 -19.431948223799527 66.8571676507584 7.184749107161388 79.3911638916116 -75.96448280969928 -4.770832022195277e-15 -6.361109362927035e-15 -2.648343778830095e-31 -114.15797927337827 -42.481395058953474 152.02578833111386 -22.635559205691035 -15.645531109737266 -34.41643892641558 69.93041553599934 48.687968946847235 -4.732181313016144 0.0 0.0 -1.2722218725854067e-14
0.6179999709129333 -0.8949999809265137 0.3319999873638153 -39.80592382513829 86.30679579221457 -143.4483336221801 -6.729854511627265 11.900334628234974 0.6918580870791755 -4.974477323281824e-07 3.3318004885766152e-06 8.337211067261297 140.64796150218436 3.7100289981356376 -112.11816766997431 2.6389392193129206e-06 3.990170278112705e-07 81.60040098666309 -2.5290245693895758e-06 -31.310272069617607 50.97840756564769 0.0 0.0 0.0 -119.12377975558051 7.370506708634888 117.03827277936773 2.8567816285743643e-06 3.2186631784089304e-06 -86.30004624422843 -179.9999946071462 -67.04320181332199 127.87968968661036 -3.531125038440127e-31 6.3611093629270335e-15 6.3611093629270335e-15 101.72935106907337 -35.320456511261256 -149.58462699293503 41.49509135173155 -23.515208031699352 82.65251275300442 63.68871180542318 70.96432014421396 -131.59371937656837 -1.5902773407317588e-15 -6.3611093629270335e-15 -6.3611093629270335e-15 -109.93172490819498 -46.732172999578026 160.82077252248823 -30.239870684461415 -15.695731175944653 -56.30718580331513 52.886577360454346 61.726664984036105 16.37542973008276 1.5902773407317584e-15 0.0 0.0
0.6209999918937683 -0.9179999828338623 0.32499998807907104 -2.290581916904173 78.02867833490528 177.07465826793498 -4.725770731816192 11.832145717006053 -0.2206812566557624 -3.909951383554555e-07 -2.1739148171947095e-06 10.427824076048918 137.99807186244547 -8.59002922453517 -113.96864114619184 -3.3015961855811026e-06 -2.0418821927114303e-06 64.11215504851317 2.118068175394808e-06 -51.51424875202995 46.15863539567982 -2.3854160110976376e-15 -1.3241718894150476e-31 6.3611093629270335e-15 -113.06082552458437 -0.854326549569469 123.61334276685787 -2.753086110104335e-06 1.0585364878658937e-05 -69.23968514074718 -179.99999121099847 -57.549325033326106 126.78044467454899 0.0 0.0 3.1805546814635168e-15 97.15880635918528 -34.23882913311949 -153.93834617443872 43.82688330369819 -25.538001557446698 81.961163649461 59.067747272238684 73.52085735044108 -124.4208655576317 4.770832022195275e-15 2.648343778830095e-31 6.3611093629270335e-15 -101.84628624940764 -52.28176515568268 177.89214225891592 -35.87018678102969 -11.104147838351444 -82.40158173696798 21.21192947205758 68.82806945195527 55.750201497907874 3.975693351829396e-15 -6.3611093629270335e-15 2.2069531490250793e-31
0.6200000047683716 -0.9079999923706055 0.3059999942779541 1.6365583300061173 73.20373265552331 174.04398415961123 -4.03992530413984 14.414697395718445 -0.7902157784751297 5.601088490302438e-07 -3.8148989598822736e-06 10.422681027536047 124.51940969955734 -18.35950914065695 -118.3341476035827 3.0943175474576684e-06 2.7573420544548276e-06 47.848568496708715 -9.277428230466542e-06 -67.69842438280365 44.03110045824125 -3.1805546814635164e-15 3.1805546814635164e-15 -3.1805546814635164e-15 -100.75741473824155 -4.056922826857154 131.4301963730386 1.1893964490375057e-06 3.4686575343769337e-06 -52.6104969033325 -179.99999867596293 -51.446100898208684 124.14488502160074 -3.1805546814635168e-15 -6.361109362927035e-15 8.547740706433203e-15 88.7811017547321 -34.11640506599033 -159.96604406927676 46.61968807888504 -28.389758722639595 94.24062197349176 54.54852627798157 62.81922197829974 -118.83454937459358 -3.180554681463516e-15 1.7655625192200634e-31 -6.361109362927032e-15 -89.03855572213192 -52.02553735154288 -167.6059719636807 -41.8980213916526 -10.39876592102169 -132.81606599639494 -52.23052540039743 42.41902648995024 139.38158276728603 -3.1805546814635168e-15 -1.7655625192200634e-31 6.3611093629270335e-15
